<mxfile host="Electron" agent="Mozilla/5.0 (X11; Linux x86_64) AppleWebKit/537.36 (KHTML, like Gecko) draw.io/25.0.1 Chrome/128.0.6613.186 Electron/32.2.6 Safari/537.36" version="25.0.1">
  <diagram id="prtHgNgQTEPvFCAcTncT" name="Page-1">
    <mxGraphModel dx="1434" dy="870" grid="1" gridSize="10" guides="1" tooltips="1" connect="1" arrows="1" fold="1" page="1" pageScale="1" pageWidth="827" pageHeight="1169" math="0" shadow="0">
      <root>
        <mxCell id="0" />
        <mxCell id="1" parent="0" />
        <mxCell id="I9sGoZm3iVi72w8b68Hv-6" value="L0 - Initial proposal" style="rounded=0;whiteSpace=wrap;html=1;" parent="1" vertex="1">
          <mxGeometry x="60" y="10" width="140" height="30" as="geometry" />
        </mxCell>
        <mxCell id="I9sGoZm3iVi72w8b68Hv-7" value="L1 - C&lt;span style=&quot;background-color: initial;&quot;&gt;o-development&lt;/span&gt;" style="rounded=0;whiteSpace=wrap;html=1;" parent="1" vertex="1">
          <mxGeometry x="200" y="10" width="140" height="30" as="geometry" />
        </mxCell>
        <mxCell id="I9sGoZm3iVi72w8b68Hv-8" value="L2 - Validation phase" style="rounded=0;whiteSpace=wrap;html=1;" parent="1" vertex="1">
          <mxGeometry x="340" y="10" width="140" height="30" as="geometry" />
        </mxCell>
        <mxCell id="I9sGoZm3iVi72w8b68Hv-9" value="L3 - Workshop use" style="rounded=0;whiteSpace=wrap;html=1;" parent="1" vertex="1">
          <mxGeometry x="480" y="10" width="140" height="30" as="geometry" />
        </mxCell>
        <mxCell id="I9sGoZm3iVi72w8b68Hv-10" value="L4 - Operational service" style="rounded=0;whiteSpace=wrap;html=1;" parent="1" vertex="1">
          <mxGeometry x="620" y="10" width="140" height="30" as="geometry" />
        </mxCell>
        <mxCell id="I9sGoZm3iVi72w8b68Hv-12" value="" style="rounded=0;whiteSpace=wrap;html=1;" parent="1" vertex="1">
          <mxGeometry x="60" y="40" width="140" height="410" as="geometry" />
        </mxCell>
        <mxCell id="I9sGoZm3iVi72w8b68Hv-14" value="" style="rounded=0;whiteSpace=wrap;html=1;" parent="1" vertex="1">
          <mxGeometry x="620" y="40" width="140" height="410" as="geometry" />
        </mxCell>
        <mxCell id="I9sGoZm3iVi72w8b68Hv-15" value="" style="rounded=0;whiteSpace=wrap;html=1;" parent="1" vertex="1">
          <mxGeometry x="480" y="40" width="140" height="410" as="geometry" />
        </mxCell>
        <mxCell id="I9sGoZm3iVi72w8b68Hv-16" value="" style="rounded=0;whiteSpace=wrap;html=1;" parent="1" vertex="1">
          <mxGeometry x="340" y="40" width="140" height="410" as="geometry" />
        </mxCell>
        <mxCell id="I9sGoZm3iVi72w8b68Hv-17" value="" style="rounded=0;whiteSpace=wrap;html=1;" parent="1" vertex="1">
          <mxGeometry x="200" y="40" width="140" height="410" as="geometry" />
        </mxCell>
        <mxCell id="I9sGoZm3iVi72w8b68Hv-18" value="Golden users" style="shape=step;perimeter=stepPerimeter;whiteSpace=wrap;html=1;fixedSize=1;" parent="1" vertex="1">
          <mxGeometry x="70" y="50" width="680" height="30" as="geometry" />
        </mxCell>
        <mxCell id="I9sGoZm3iVi72w8b68Hv-19" value="Scientific steering board" style="shape=step;perimeter=stepPerimeter;whiteSpace=wrap;html=1;fixedSize=1;" parent="1" vertex="1">
          <mxGeometry x="530" y="170" width="220" height="30" as="geometry" />
        </mxCell>
        <mxCell id="I9sGoZm3iVi72w8b68Hv-22" value="Core developers" style="shape=step;perimeter=stepPerimeter;whiteSpace=wrap;html=1;fixedSize=1;" parent="1" vertex="1">
          <mxGeometry x="160" y="250" width="310" height="30" as="geometry" />
        </mxCell>
        <mxCell id="I9sGoZm3iVi72w8b68Hv-23" value="Virtual lab coordinator" style="shape=step;perimeter=stepPerimeter;whiteSpace=wrap;html=1;fixedSize=1;" parent="1" vertex="1">
          <mxGeometry x="70" y="370" width="680" height="30" as="geometry" />
        </mxCell>
        <mxCell id="I9sGoZm3iVi72w8b68Hv-24" value="DevOps engineers" style="shape=step;perimeter=stepPerimeter;whiteSpace=wrap;html=1;fixedSize=1;" parent="1" vertex="1">
          <mxGeometry x="70" y="410" width="680" height="30" as="geometry" />
        </mxCell>
        <mxCell id="I9sGoZm3iVi72w8b68Hv-25" value="Infrastructure supporter" style="shape=step;perimeter=stepPerimeter;whiteSpace=wrap;html=1;fixedSize=1;" parent="1" vertex="1">
          <mxGeometry x="210" y="330" width="540" height="30" as="geometry" />
        </mxCell>
        <mxCell id="I9sGoZm3iVi72w8b68Hv-26" value="Reviewer" style="shape=step;perimeter=stepPerimeter;whiteSpace=wrap;html=1;fixedSize=1;" parent="1" vertex="1">
          <mxGeometry x="210" y="290" width="120" height="30" as="geometry" />
        </mxCell>
        <mxCell id="I9sGoZm3iVi72w8b68Hv-27" value="Trainer" style="shape=step;perimeter=stepPerimeter;whiteSpace=wrap;html=1;fixedSize=1;" parent="1" vertex="1">
          <mxGeometry x="460" y="290" width="150" height="30" as="geometry" />
        </mxCell>
        <mxCell id="I9sGoZm3iVi72w8b68Hv-28" value="User supporter" style="shape=step;perimeter=stepPerimeter;whiteSpace=wrap;html=1;fixedSize=1;" parent="1" vertex="1">
          <mxGeometry x="510" y="250" width="240" height="30" as="geometry" />
        </mxCell>
        <mxCell id="I9sGoZm3iVi72w8b68Hv-29" value="VRE researcher" style="shape=step;perimeter=stepPerimeter;whiteSpace=wrap;html=1;fixedSize=1;" parent="1" vertex="1">
          <mxGeometry x="350" y="290" width="121" height="30" as="geometry" />
        </mxCell>
        <mxCell id="l4sgM1ovnbw1UgXevknb-2" value="Silver users" style="shape=step;perimeter=stepPerimeter;whiteSpace=wrap;html=1;fixedSize=1;" vertex="1" parent="1">
          <mxGeometry x="490" y="90" width="260" height="30" as="geometry" />
        </mxCell>
        <mxCell id="l4sgM1ovnbw1UgXevknb-3" value="Ivory users" style="shape=step;perimeter=stepPerimeter;whiteSpace=wrap;html=1;fixedSize=1;" vertex="1" parent="1">
          <mxGeometry x="630" y="130" width="120" height="30" as="geometry" />
        </mxCell>
        <mxCell id="l4sgM1ovnbw1UgXevknb-4" value="" style="group" vertex="1" connectable="0" parent="1">
          <mxGeometry x="70" y="210" width="680" height="30" as="geometry" />
        </mxCell>
        <mxCell id="l4sgM1ovnbw1UgXevknb-1" value="" style="shape=step;perimeter=stepPerimeter;whiteSpace=wrap;html=1;fixedSize=1;dashed=1;dashPattern=1 4;" vertex="1" parent="l4sgM1ovnbw1UgXevknb-4">
          <mxGeometry x="80" width="180" height="30" as="geometry" />
        </mxCell>
        <mxCell id="I9sGoZm3iVi72w8b68Hv-20" value="Community supporter" style="shape=step;perimeter=stepPerimeter;whiteSpace=wrap;html=1;fixedSize=1;" parent="l4sgM1ovnbw1UgXevknb-4" vertex="1">
          <mxGeometry width="100" height="30" as="geometry" />
        </mxCell>
        <mxCell id="I9sGoZm3iVi72w8b68Hv-21" value="Community supporter" style="shape=step;perimeter=stepPerimeter;whiteSpace=wrap;html=1;fixedSize=1;" parent="l4sgM1ovnbw1UgXevknb-4" vertex="1">
          <mxGeometry x="240" width="440" height="30" as="geometry" />
        </mxCell>
      </root>
    </mxGraphModel>
  </diagram>
</mxfile>
